<svg width="70" height="70" viewBox="0 0 70 70" fill="none" xmlns="http://www.w3.org/2000/svg">
<path fill-rule="evenodd" clip-rule="evenodd" d="M35 70C54.33 70 70 54.33 70 35C70 15.67 54.33 0 35 0C15.67 0 0 15.67 0 35C0 54.33 15.67 70 35 70ZM51.0644 21.4609C50.0985 20.7353 48.7273 20.93 48.0016 21.8959L29.666 46.301L21.4326 36.8319L21.1782 36.5829C20.3682 35.9099 19.167 35.9031 18.3465 36.6166C17.4349 37.4094 17.3385 38.7911 18.1313 39.7027L26.7205 49.5799L27.0418 49.909C28.4984 51.2375 30.7517 51.2924 32.2754 49.9673C32.4843 49.7857 32.6735 49.5825 32.8397 49.3612L51.4995 24.5238L51.6897 24.2229C52.1785 23.2901 51.9338 22.114 51.0644 21.4609Z" fill="#48C78C"/>
</svg>
